Coordinates
version=1
nRows=29
nColumns=24
inDegrees=yes

Units are S.I. units (second, meters, Newtons, ...)
Angles are in degrees.

endheader
time	pelvis_tilt	pelvis_list	pelvis_rotation	pelvis_tx	pelvis_ty	pelvis_tz	hip_flexion_r	hip_adduction_r	hip_rotation_r	knee_angle_r	ankle_angle_r	subtalar_angle_r	mtp_angle_r	hip_flexion_l	hip_adduction_l	hip_rotation_l	knee_angle_l	ankle_angle_l	subtalar_angle_l	mtp_angle_l	lumbar_extension	lumbar_bending	lumbar_rotation
      1.83000000	     15.29055046	     -1.58703939	      1.19588867	     -0.03058412	      0.93955255	      0.24828653	    -23.77749637	      5.56404354	      1.92030564	     -5.81722696	     21.80786812	      1.94634321	     16.94271865	     13.95533040	     -2.25598562	    -10.05158609	    -35.24200301	     19.07571933	      1.95152107	     38.73046374	    -33.26508189	      3.70902486	      3.73633159
      1.83500000	     15.46794576	     -1.44788950	      0.92942622	     -0.02407720	      0.93912062	      0.24851829	    -24.48167155	      5.31123760	      2.07675565	     -5.70286944	     22.03777028	      2.12312130	     16.70734325	     13.44872882	     -2.02755499	    -10.57682628	    -32.68787937	     18.51175841	      2.27148039	     38.69171093	    -33.46233625	      3.41413435	      3.93286562
      1.84000000	     15.68519004	     -1.32211872	      0.56110910	     -0.01756072	      0.93869748	      0.24876396	    -25.20340465	      5.01649289	      2.35580883	     -5.64791998	     22.32503446	      2.31746290	     16.49842383	     12.85290967	     -1.81925685	    -11.19646943	    -30.08141369	     17.87865101	      2.63319597	     38.68142348	    -33.70087822	      3.07042569	      4.23660419
      1.84500000	     15.97438529	     -1.11449464	      0.19923500	     -0.01087062	      0.93840435	      0.24884060	    -26.01592972	      4.61875966	      2.39031543	     -5.57840751	     22.65076351	      2.76370652	     16.35532088	     12.10445984	     -1.47030943	    -11.72240488	    -27.39316627	     17.13115540	      2.94720431	     38.54544129	    -33.99422023	      2.67279713	      4.46150349
      1.85000000	     16.18070002	     -0.99380887	     -0.02004661	     -0.00420027	      0.93782055	      0.24887295	    -26.77957146	      4.38063244	      2.49925453	     -5.41771177	     22.88988840	      2.94063015	     16.24295403	     11.51499214	     -1.21076509	    -12.20468653	    -24.84735376	     16.39035980	      3.48679275	     38.51332204	    -34.20475977	      2.41845188	      4.60433746
      1.85500000	     16.33844877	     -0.92758112	     -0.16951025	      0.00235577	      0.93709224	      0.24881404	    -27.45232668	      4.22495941	      2.53909354	     -5.33008876	     23.18861068	      3.11209972	     16.23311374	     11.02430895	     -0.98818540	    -12.53258928	    -22.39899862	     15.59436666	      3.96578570	     38.52206288	    -34.35747457	      2.24759252	      4.76732537
      1.86000000	     16.35282736	     -0.93143144	     -0.30906704	      0.00894864	      0.93610320	      0.24872226	    -27.94841687	      4.13435476	      2.63180621	     -5.28296916	     23.47146250	      3.26813091	     16.27408595	     10.69862413	     -0.83117305	    -12.80755446	    -20.03268754	     14.92597422	      4.41429054	     38.55595265	    -34.35338454	      2.15064296	      4.97599187
      1.86500000	     16.35108512	     -0.94904031	     -0.38288086	      0.01557179	      0.93505407	      0.24841321	    -28.43958353	      4.07397350	      2.65527124	     -5.22399375	     23.58175286	      3.43009984	     16.14761665	     10.41089109	     -0.66427400	    -12.95818086	    -17.78430851	     14.31403631	      4.88364457	     38.53994365	    -34.33462011	      2.11802936	      5.11903694
      1.87000000	     16.32961759	     -1.04923428	     -0.51184704	      0.02197754	      0.93397484	      0.24820831	    -28.82321058	      4.07309445	      2.71710618	     -5.29839037	     23.80276303	      3.65202694	     16.03091199	     10.16861277	     -0.60246466	    -13.13472197	    -15.64753816	     13.77589881	      5.36203245	     38.58011192	    -34.32570280	      2.14074273	      5.37656512
      1.87500000	     16.33952437	     -1.13475167	     -0.56858357	      0.02842370	      0.93281813	      0.24805928	    -29.27225956	      4.10453798	      2.77164972	     -5.32994270	     24.05856265	      3.92359590	     15.92519422	      9.90681163	     -0.52526932	    -13.23306684	    -13.63663748	     13.28659395	      5.82711754	     38.85423009	    -34.32679595	      2.16811635	      5.57159950
      1.88000000	     16.22410878	     -1.28287940	     -0.53083752	      0.03477811	      0.93153478	      0.24756370	    -29.51713213	      4.22967053	      2.72874003	     -5.48025381	     24.32443483	      4.25236926	     15.94958914	      9.80645798	     -0.46303099	    -13.13779963	    -11.73044863	     12.84206562	      5.94287817	     38.93957615	    -34.21978763	      2.32399197	      5.79843431
      1.88500000	     16.18127702	     -1.37759922	     -0.54993836	      0.04139413	      0.93030804	      0.24733540	    -29.86478157	      4.29902820	      2.51349460	     -5.62267664	     24.58853115	      4.60852622	     16.00232650	      9.62983321	     -0.40118604	    -13.34992568	    -10.01579208	     12.60861573	      6.52845263	     39.14555462	    -34.16517004	      2.37512109	      5.86471263
      1.89000000	     15.98260363	     -1.53774445	     -0.45296441	      0.04794609	      0.92882062	      0.24683118	    -30.05974178	      4.47168846	      2.50502251	     -5.71015134	     24.76557419	      4.54055115	     16.04807410	      9.72203599	     -0.38362553	    -13.31447624	     -8.59748305	     12.45374701	      6.92617054	     39.17159891	    -33.92895807	      2.55343950	      5.92466297
      1.89500000	     15.79376855	     -1.70502765	     -0.29888777	      0.05456364	      0.92729707	      0.24622046	    -30.29583435	      4.66366002	      2.45062729	     -5.74190370	     24.83343981	      4.58885199	     16.09389359	      9.85015047	     -0.37647005	    -13.24557044	     -7.41241162	     12.39531878	      7.37635139	     39.21198076	    -33.70783365	      2.78797274	      5.99388302
      1.90000000	     15.64217368	     -1.89871854	      0.01040336	      0.06114347	      0.92584674	      0.24546755	    -30.51708915	      4.98325308	      2.06361707	     -5.90933418	     24.91302869	      4.77878987	     16.20653550	     10.06862056	     -0.40960722	    -13.22356554	     -6.62035705	     12.54141438	      8.09690255	     39.30006066	    -33.52966237	      3.11963409	      5.90545130
      1.90500000	     15.45924187	     -2.09465273	      0.31319059	      0.06778734	      0.92431327	      0.24469048	    -30.69526494	      5.29676362	      1.66666624	     -6.08755215	     25.04271314	      5.02421973	     16.39535824	     10.37795476	     -0.45706839	    -13.22446773	     -6.10420075	     12.72711477	      8.90521150	     39.34325142	    -33.29684636	      3.44113122	      5.82679769
      1.91000000	     15.22467116	     -2.29075395	      0.51365983	      0.07457275	      0.92281122	      0.24404781	    -30.80525141	      5.55599565	      1.48686992	     -6.28980619	     25.16973773	      5.16868880	     16.67235075	     10.68994260	     -0.51900621	    -13.32080234	     -5.67969243	     12.97661351	      9.60446776	     39.36633412	    -33.00599754	      3.70608440	      5.79423148
      1.91500000	     14.86984368	     -2.52985060	      0.57759748	      0.08134357	      0.92119953	      0.24355569	    -30.71025819	      5.77963307	      1.37518229	     -6.64213758	     25.23599273	      5.34265507	     17.81744549	     11.22904648	     -0.68543976	    -13.52984401	     -5.64317999	     13.15848926	     10.30240068	     39.27730253	    -32.59580894	      3.95862449	      5.90282939
      1.92000000	     14.72843375	     -2.62623859	      0.67533345	      0.08833183	      0.91986567	      0.24310180	    -30.88367017	      5.88118627	      1.14796770	     -6.95535944	     25.42549534	      5.71323289	     18.13868404	     11.53160694	     -0.71657697	    -13.61191438	     -5.81940462	     13.40558508	     10.96003818	     39.26901539	    -32.38767903	      4.06970756	      5.85516048
      1.92500000	     14.55241373	     -2.79921297	      0.68961832	      0.09526141	      0.91855532	      0.24287579	    -30.97637083	      6.02513435	      1.20274460	     -7.32391035	     25.33864926	      5.68884653	     20.04862107	     11.89360624	     -0.85998544	    -13.54656727	     -6.19908441	     13.74338747	     11.26779574	     38.60848351	    -32.16046673	      4.20666354	      5.99132746
      1.93000000	     14.51984260	     -2.82495205	      0.64964684	      0.10247401	      0.91755490	      0.24268577	    -31.25402063	      5.98114579	      1.05273384	     -7.67135140	     25.46371081	      6.13692352	     20.29340782	     12.00724022	     -0.84404523	    -13.35505355	     -6.59587204	     13.90215760	     11.33670318	     38.56028518	    -32.06713318	      4.17128699	      6.08160699
      1.93500000	     14.55247871	     -2.75582327	      0.64885862	      0.10982820	      0.91667810	      0.24241362	    -31.61515861	      5.85382997	      0.79470814	     -8.02741706	     25.56900050	      6.63866983	     20.72802788	     12.05977752	     -0.72704052	    -13.08374102	     -7.17113386	     14.06999892	     11.24548381	     38.50417357	    -32.01978210	      4.04233690	      6.03593498
      1.94000000	     14.61613974	     -2.59978168	      0.55703697	      0.11724665	      0.91594928	      0.24207770	    -31.93664923	      5.57198594	      0.56225901	     -8.53494282	     25.66789200	      7.24748768	     21.25450018	     12.07367948	     -0.53751010	    -12.85769592	     -7.90580810	     14.12513097	     11.05737639	     38.33122634	    -32.00511109	      3.82346058	      6.01373980
      1.94500000	     14.68527566	     -2.38516702	      0.40967681	      0.12482113	      0.91528957	      0.24181218	    -32.27183449	      5.19835186	      0.32253089	     -9.03990022	     25.72945780	      7.92975702	     21.79664365	     12.07026652	     -0.30468643	    -12.70543214	     -8.76503010	     14.21543165	     10.90543836	     38.06039102	    -31.98081013	      3.51427972	      6.02887684
      1.95000000	     14.94662427	     -2.01824551	      0.22226999	      0.13243771	      0.91504415	      0.24173268	    -32.91435278	      4.67540606	      0.21659464	     -9.31168585	     25.39628939	      8.14719994	     24.04559349	     11.79150932	      0.07545389	    -12.59677408	     -9.65474567	     14.20440928	     10.70036469	     37.02388618	    -32.17566016	      3.01624254	      5.86254575
      1.95500000	     15.00455237	     -1.81618744	      0.04019854	      0.13996328	      0.91446963	      0.24166603	    -33.15638699	      4.30765175	      0.09639365	     -9.96193159	     25.45746135	      8.64122294	     24.45321061	     11.81765838	      0.27077271	    -12.41635836	    -10.74745136	     14.15428713	     10.43398007	     36.93619076	    -32.15563533	      2.67147922	      5.89825625
      1.96000000	     15.07501830	     -1.59021397	     -0.10427701	      0.14745324	      0.91389641	      0.24149747	    -33.42761520	      3.92672375	      0.03689657	    -10.55237726	     25.43275506	      9.05469598	     25.07706132	     11.86411591	      0.52624872	    -12.20299369	    -11.92388228	     13.75391831	      9.90119253	     36.82232818	    -32.14858834	      2.32733911	      5.84218001
      1.96500000	     15.16482371	     -1.31296152	     -0.24257389	      0.15490648	      0.91349226	      0.24146591	    -33.70028651	      3.51512056	     -0.05967070	    -11.13604792	     25.09919972	      9.28358695	     27.94659349	     11.90930830	      0.85624836	    -12.10924182	    -13.01252138	     12.23600887	      8.84342133	     38.83924963	    -32.17319005	      1.91983386	      5.73405805
      1.97000000	     15.18620687	     -0.94440924	     -0.31693274	      0.16229427	      0.91314398	      0.24132867	    -33.83884594	      3.05022493	     -0.29948665	    -11.85196568	     25.03343613	      9.74273365	     28.37012301	     12.00362519	      1.33574299	    -11.64795236	    -13.87981713	      9.93519162	      7.11040499	     39.02910460	    -32.13135503	      1.45890648	      5.55049305
